# xmcd
#
# Track frame offsets:
# 150
# 19210
# 43538
# 64940
# 81123
# 97225
# 123688
# 143313
# 169358
# 193265
# 215058
# 225175
#
# Disc length: 3055 seconds
#
#
# Revision: 2
# Processed by: cddbd v1.4PL0 Copyright (c) Steve Scherf et al.
# Submitted via: FreeRIP 2.10 
#
DISCID=ab0bed0c
DTITLE=Otis Grand - He Knows The Blues
DYEAR=1992
DGENRE=Blues
TTITLE0=Things Are Getting Harder To Do
TTITLE1=You Hurt Me
TTITLE2=Jumpin' For Jimmy
TTITLE3=Grand Style
TTITLE4=Real Gone Lover
TTITLE5=SRV (My Mood Too)
TTITLE6=Leave Me That Girl
TTITLE7=Ham
TTITLE8=Your Love Pulls No Punches
TTITLE9=Swing Turn
TTITLE10=Teach Me How To Love You
TTITLE11=He Knows The Blues
EXTD=
EXTT0=
EXTT1=
EXTT2=
EXTT3=
EXTT4=
EXTT5=
EXTT6=
EXTT7=
EXTT8=
EXTT9=
EXTT10=
EXTT11=
PLAYORDER=
